<svg width="19" height="20" viewBox="0 0 19 20" fill="none" xmlns="http://www.w3.org/2000/svg">
<path d="M9.49859 19.224C7.67459 19.224 6.18659 17.736 6.18659 15.912C6.18659 14.376 6.85859 13.56 8.34659 12.192C8.92259 11.664 9.16259 11.208 9.16259 10.776V10.344H8.73059C8.22659 10.344 7.55459 10.848 6.69059 11.832C5.82659 12.84 4.79459 13.32 3.59459 13.32C1.77059 13.32 0.282594 11.832 0.282594 10.008C0.282594 8.184 1.77059 6.696 3.59459 6.696C4.81859 6.696 5.82659 7.2 6.66659 8.16C7.50659 9.12 8.20259 9.624 8.73059 9.624H9.16259V9.24C9.16259 8.808 8.92259 8.352 8.34659 7.824L7.79459 7.32C6.97859 6.576 6.18659 5.592 6.18659 4.104C6.18659 2.28 7.65059 0.792 9.49859 0.792C11.3226 0.792 12.8106 2.304 12.8106 4.104C12.8106 5.328 12.3066 6.336 11.3466 7.176C10.3866 8.016 9.88259 8.688 9.88259 9.24V9.624H10.2666C10.8186 9.624 11.5146 9.12 12.3306 8.16C13.1466 7.176 14.1786 6.696 15.4026 6.696C17.2266 6.696 18.7146 8.16 18.7146 10.008C18.7146 11.832 17.2266 13.32 15.4026 13.32C13.8906 13.32 12.9786 12.576 11.6826 11.16C11.1546 10.584 10.6986 10.344 10.2666 10.344H9.88259V10.776C9.88259 11.328 10.3626 12.048 11.3466 12.84C12.3306 13.632 12.8106 14.664 12.8106 15.912C12.8106 17.736 11.3466 19.224 9.49859 19.224Z" fill="#3AABDF"/>
</svg>
