<svg width="24" height="23" viewBox="0 0 24 23" fill="none" xmlns="http://www.w3.org/2000/svg">
<path d="M12.0357 22.8L0.947719 11.712L11.9877 0.671999L23.0757 11.76L12.0357 22.8ZM12.0117 21.288L21.6117 11.688L12.0117 2.112L2.43572 11.688L12.0117 21.288ZM4.18772 19.536V3.912H19.8597V19.536H4.18772ZM5.21972 18.48H18.7797V4.92H5.21972V18.48ZM12.0117 13.968C11.3877 13.968 10.8517 13.744 10.4037 13.296C9.95572 12.848 9.73172 12.312 9.73172 11.688C9.73172 11.064 9.95572 10.528 10.4037 10.08C10.8517 9.632 11.3877 9.408 12.0117 9.408C12.6357 9.408 13.1717 9.632 13.6197 10.08C14.0677 10.528 14.2917 11.064 14.2917 11.688C14.2917 12.312 14.0677 12.848 13.6197 13.296C13.1717 13.744 12.6357 13.968 12.0117 13.968ZM12.0117 13.104C12.4117 13.104 12.7477 12.96 13.0197 12.672C13.2917 12.384 13.4277 12.056 13.4277 11.688C13.4277 11.288 13.2917 10.952 13.0197 10.68C12.7477 10.392 12.4117 10.248 12.0117 10.248C11.6117 10.248 11.2757 10.392 11.0037 10.68C10.7317 10.952 10.5957 11.288 10.5957 11.688C10.5957 12.056 10.7317 12.384 11.0037 12.672C11.2757 12.96 11.6117 13.104 12.0117 13.104Z" fill="white"/>
</svg>
