<svg width="19" height="20" viewBox="0 0 19 20" fill="none" xmlns="http://www.w3.org/2000/svg">
<path d="M8.97059 19.008C8.63459 16.944 7.14659 14.376 4.36259 12.264C2.97059 11.208 1.60259 10.536 0.282594 10.272V9.264C2.94659 8.664 5.58659 6.792 7.31459 4.344C8.17859 3.12 8.73059 1.872 8.97059 0.576H9.97859C10.3866 3.024 12.3066 5.688 14.8266 7.488C16.0746 8.376 17.3706 8.976 18.7146 9.264V10.272C16.0026 10.824 12.9066 13.176 11.3946 15.6C10.6266 16.824 10.1466 17.952 9.97859 19.008H8.97059ZM9.30659 18.432H9.64259C9.88259 15.936 10.6266 13.224 11.4666 11.808C13.0746 10.896 15.9786 10.128 18.0906 9.984V9.648C15.9786 9.48 12.9546 8.664 11.4666 7.776C10.6266 6.336 9.88259 3.696 9.64259 1.2H9.30659C9.11459 3.456 8.39459 6.168 7.48259 7.776C5.94659 8.664 3.06659 9.48 0.858594 9.648V9.984C3.04259 10.152 5.85059 10.896 7.48259 11.808C8.37059 13.368 9.11459 16.128 9.30659 18.432Z" fill="white"/>
</svg>
