<svg width="20" height="20" viewBox="0 0 20 20" fill="none" xmlns="http://www.w3.org/2000/svg">
<path d="M6.085 19.152C4.405 19.152 2.749 17.52 2.749 15.936C2.749 14.016 4.597 12.216 6.205 11.664C5.629 11.832 5.077 11.904 4.525 11.904C2.293 11.904 0.349 10.608 0.349 8.544C0.349 6.48 1.837 5.088 3.613 5.088C5.029 5.088 6.661 6 7.645 7.248C7.093 6.456 6.637 5.208 6.637 3.936C6.637 2.04 7.957 0.48 9.997 0.48C11.989 0.48 13.309 1.992 13.309 3.936C13.309 5.112 12.925 6.36 12.301 7.248L12.397 7.128C13.429 5.856 14.869 5.088 16.381 5.088C18.109 5.088 19.645 6.432 19.645 8.52C19.645 10.656 17.557 11.904 15.445 11.904C14.701 11.88 14.125 11.784 13.741 11.664C15.397 12.264 17.245 13.944 17.245 15.984C17.245 17.448 15.661 19.152 13.885 19.152C12.301 19.152 11.125 18.096 10.477 16.464C10.141 15.624 9.997 14.952 9.997 14.4C9.637 17.352 8.221 19.152 6.085 19.152ZM8.653 7.632L9.421 7.344C9.565 6.984 9.613 6.672 9.613 6.432C9.613 6.12 9.421 5.52 9.421 5.28C9.421 4.848 9.613 4.464 9.997 4.464C10.381 4.464 10.573 4.848 10.573 5.28C10.573 5.592 10.333 6.12 10.333 6.432C10.333 6.72 10.405 7.032 10.525 7.344L11.293 7.632C11.941 6.984 12.349 5.832 12.349 4.704C12.349 3.192 11.389 2.208 9.997 2.208C8.605 2.208 7.597 3.192 7.597 4.704C7.597 5.832 8.005 7.008 8.653 7.632ZM5.149 11.328C5.797 11.328 6.349 11.208 6.829 10.944V10.128C6.661 9.888 6.181 9.672 5.389 9.6C4.621 9.528 4.213 9.288 4.213 8.88C4.213 8.52 4.501 8.376 4.789 8.376C4.981 8.376 5.317 8.472 5.749 8.736C6.181 9 6.637 9.12 7.069 9.12H7.165L7.645 8.448C7.165 7.464 5.701 6.384 4.285 6.384C2.941 6.384 2.005 7.488 2.005 8.832C2.005 10.272 3.277 11.328 5.149 11.328ZM14.821 11.328C16.693 11.328 17.989 10.272 17.989 8.832C17.989 7.44 17.005 6.384 15.685 6.384C14.221 6.384 12.757 7.488 12.301 8.448L12.829 9.12H12.925L13.117 9.096C13.501 9.048 13.885 8.976 14.269 8.736C14.653 8.496 14.941 8.376 15.157 8.376C15.541 8.376 15.733 8.544 15.733 8.904C15.733 9.312 15.421 9.528 14.797 9.552C14.173 9.576 13.621 9.768 13.165 10.128L13.117 10.944C13.597 11.208 14.149 11.328 14.821 11.328ZM6.469 17.616C8.077 17.616 9.301 15.456 9.301 13.968V13.728L9.277 13.536L8.509 13.296C7.957 13.632 7.597 14.088 7.453 14.616C7.309 15.168 7.045 15.432 6.661 15.432C6.373 15.432 6.133 15.144 6.133 14.88C6.133 14.544 6.349 14.256 6.757 13.968C7.165 13.68 7.453 13.248 7.597 12.672L7.165 12C5.893 12.24 4.021 13.608 4.021 15.264C4.021 16.512 5.245 17.616 6.469 17.616ZM13.381 17.616C14.629 17.616 15.829 16.488 15.829 15.264C15.829 13.584 13.981 12.288 12.685 12L12.253 12.672C12.373 13.224 12.661 13.632 13.069 13.968C13.477 14.304 13.693 14.616 13.693 14.928C13.693 15.192 13.453 15.432 13.189 15.432C12.853 15.432 12.565 15.168 12.373 14.616C12.181 14.088 11.821 13.656 11.341 13.296L10.573 13.536L10.549 13.728V13.968C10.549 14.856 11.125 16.344 11.989 17.064C12.421 17.424 12.877 17.616 13.381 17.616Z" fill="white"/>
</svg>
