<svg width="20" height="20" viewBox="0 0 20 20" fill="none" xmlns="http://www.w3.org/2000/svg">
<path d="M10.0243 19.296C8.44028 19.296 7.62428 18.312 7.62428 16.992C7.62428 16.248 7.93628 15.312 8.53628 14.184C9.13628 13.032 9.52028 11.76 9.68828 10.32C8.51228 10.44 7.50428 10.704 6.66428 11.088C4.36028 12.144 3.83228 12.336 2.96828 12.336C1.69628 12.336 0.712281 11.496 0.712281 9.984C0.712281 8.472 1.72028 7.632 2.96828 7.632C3.76028 7.632 4.79228 7.944 6.04028 8.568C7.31228 9.216 8.51228 9.576 9.68828 9.696C9.56828 8.52 9.30428 7.512 8.92028 6.672C7.81628 4.272 7.62428 3.768 7.62428 2.976C7.62428 1.704 8.36828 0.719999 10.0243 0.719999C11.6563 0.719999 12.3763 1.728 12.3763 2.976C12.3763 3.744 12.0643 4.704 11.4643 5.832C10.8643 6.984 10.4803 8.256 10.3123 9.696C11.3923 9.576 12.4003 9.312 13.3363 8.88L14.3443 8.4C15.4243 7.896 16.3123 7.632 17.0323 7.632C18.3043 7.632 19.2883 8.496 19.2883 9.984C19.2883 11.496 18.2803 12.336 17.0323 12.336C16.1203 12.336 15.4963 12.072 13.3363 11.088C12.4963 10.704 11.4883 10.44 10.3123 10.32C10.4803 11.976 10.6483 12.552 11.5603 14.352C12.2083 15.648 12.3763 16.272 12.3763 16.992C12.3763 18.336 11.5603 19.296 10.0243 19.296Z" fill="white"/>
</svg>
