<svg width="20" height="20" viewBox="0 0 20 20" fill="none" xmlns="http://www.w3.org/2000/svg">
<path d="M10.0243 19.32C9.01628 19.32 8.24828 18.528 8.24828 17.544C8.24828 17.28 8.27228 17.088 8.29628 16.968C7.40828 16.848 6.76028 16.152 6.76028 15.24C6.76028 14.28 7.50428 13.464 8.53628 13.464C8.94428 13.464 9.32828 13.584 9.64028 13.848L9.54428 10.488L6.23228 10.392C6.49628 10.704 6.61628 11.088 6.61628 11.496C6.61628 12.48 5.87228 13.272 4.84028 13.272C3.97628 13.272 3.18428 12.672 3.06428 11.736C2.87228 11.808 2.68028 11.832 2.48828 11.832C1.50428 11.832 0.712281 11.04 0.712281 10.056C0.712281 9.048 1.50428 8.28 2.48828 8.28C2.63228 8.28 2.84828 8.328 3.06428 8.376C3.20828 7.44 4.00028 6.792 4.84028 6.792C5.82428 6.792 6.61628 7.584 6.61628 8.568C6.61628 8.976 6.49628 9.36 6.23228 9.672L9.54428 9.576L9.64028 6.264C9.30428 6.504 8.94428 6.648 8.53628 6.648C7.55228 6.648 6.76028 5.856 6.76028 4.872C6.76028 4.008 7.36028 3.216 8.29628 3.096C8.27228 2.976 8.24828 2.784 8.24828 2.52C8.24828 1.536 8.99228 0.743999 10.0243 0.743999C11.0083 0.743999 11.8003 1.536 11.8003 2.52C11.8003 2.712 11.7763 2.904 11.7043 3.096C12.6403 3.24 13.2403 4.008 13.2403 4.872C13.2403 5.88 12.4483 6.648 11.4643 6.648C11.0563 6.648 10.6963 6.504 10.3603 6.264L10.4563 9.576L13.8163 9.72C13.5283 9.36 13.3843 8.976 13.3843 8.568C13.3843 7.584 14.1763 6.792 15.1603 6.792C16.0003 6.792 16.7923 7.44 16.9363 8.376C17.1523 8.328 17.3683 8.28 17.5123 8.28C18.4963 8.28 19.2883 9.024 19.2883 10.056C19.2883 11.04 18.4963 11.832 17.5123 11.832C17.3203 11.832 17.1283 11.808 16.9363 11.736C16.8163 12.648 16.0483 13.272 15.1603 13.272C14.1523 13.272 13.3843 12.48 13.3843 11.496C13.3843 11.112 13.5283 10.752 13.8163 10.392L10.4563 10.488L10.3603 13.848C10.6723 13.584 11.0563 13.464 11.4643 13.464C12.4483 13.464 13.2403 14.256 13.2403 15.24C13.2403 16.152 12.5923 16.848 11.7043 16.968C11.7763 17.16 11.8003 17.352 11.8003 17.544C11.8003 18.528 11.0083 19.32 10.0243 19.32Z" fill="white"/>
</svg>
