<svg width="16" height="18" viewBox="0 0 16 18" fill="none" xmlns="http://www.w3.org/2000/svg">
<path d="M8.02841 17.912C7.54841 17.912 7.26041 17.624 7.26041 17.24C7.26041 17.096 7.30841 16.904 7.42841 16.664C7.54841 16.424 7.59641 16.16 7.59641 15.944V15.368L7.02041 15.8C6.92441 15.872 6.82841 16.016 6.66041 16.256C6.49241 16.496 6.25241 16.616 5.91641 16.616C5.36441 16.616 4.95641 16.208 4.95641 15.68C4.95641 15.2 5.14841 14.72 5.82041 14.624C6.49241 14.528 6.46841 14.528 7.59641 13.784L7.64441 10.088L4.42841 11.96L4.38041 12.992V13.16C4.38041 13.304 4.42841 13.52 4.54841 13.808C4.66841 14.072 4.71641 14.264 4.71641 14.36C4.71641 14.84 4.18841 15.344 3.68441 15.344C3.08441 15.344 2.65241 14.792 2.65241 14.336C2.65241 14.192 2.72441 14.024 2.82041 13.856C2.91641 13.688 2.96441 13.544 2.98841 13.448L3.03641 12.776L2.55641 13.064C2.31641 13.208 2.10041 13.376 1.95641 13.64C1.81241 13.904 1.54841 14.024 1.23641 14.024C0.876406 14.024 0.540406 13.616 0.540406 13.256C0.540406 12.872 0.996406 12.56 1.42841 12.512C1.64441 12.488 2.05241 12.344 2.65241 12.056L2.02841 11.768C1.93241 11.72 1.81241 11.696 1.71641 11.696C0.876406 11.696 0.588406 11.192 0.588406 10.736C0.588406 10.184 1.09241 9.752 1.71641 9.752C2.02841 9.752 2.26841 9.92 2.46041 10.184C2.84441 10.736 2.98841 10.76 4.04441 11.288L7.26041 9.416L4.04441 7.592L2.94041 8.168C2.79641 8.288 2.58041 8.456 2.43641 8.72C2.26841 9.008 2.00441 9.128 1.71641 9.128C1.11641 9.128 0.588406 8.696 0.588406 8.144C0.588406 7.784 0.780406 7.208 1.71641 7.16C1.78841 7.16 1.83641 7.136 1.90841 7.136C1.95641 7.136 2.22041 7.016 2.65241 6.824L2.17241 6.536C2.05241 6.464 1.74041 6.392 1.26041 6.296C0.780406 6.2 0.540406 5.96 0.540406 5.552C0.540406 5.168 0.876406 4.784 1.26041 4.784C1.59641 4.784 1.93241 4.976 2.07641 5.336C2.14841 5.504 2.48441 5.768 3.03641 6.104L2.98841 5.432L2.91641 5.216C2.74841 4.856 2.65241 4.712 2.65241 4.496C2.65241 3.992 3.10841 3.536 3.61241 3.536C4.16441 3.536 4.71641 4.04 4.71641 4.52C4.71641 4.592 4.64441 4.76 4.54841 5.024C4.45241 5.312 4.38041 5.504 4.38041 5.672V5.84L4.42841 6.92L7.64441 8.792L7.59641 5.096L7.30841 4.904C6.68441 4.496 6.22841 4.28 5.89241 4.256C5.24441 4.208 4.95641 3.752 4.95641 3.2C4.95641 2.672 5.31641 2.264 5.91641 2.264C6.22841 2.264 6.49241 2.384 6.66041 2.624C6.82841 2.864 6.87641 2.984 6.85241 2.96C6.87641 2.984 7.11641 3.176 7.59641 3.512V2.936C7.59641 2.72 7.54841 2.48 7.42841 2.216C7.30841 1.976 7.26041 1.784 7.26041 1.64C7.26041 1.256 7.57241 0.967999 8.02841 0.967999C8.43641 0.967999 8.74841 1.304 8.74841 1.64C8.74841 1.784 8.70041 2 8.58041 2.24C8.46041 2.504 8.41241 2.72 8.41241 2.936V3.512L8.94041 3.08C9.03641 3.008 9.20441 2.888 9.32441 2.624C9.44441 2.384 9.70841 2.264 10.0444 2.264C10.5964 2.264 11.0044 2.648 11.0044 3.2C11.0044 3.8 10.7644 4.112 10.3084 4.208C9.82841 4.304 9.54041 4.376 9.42041 4.424L8.41241 5.096L8.36441 8.792L11.5324 6.92L11.5804 5.888V5.72C11.5804 5.504 11.5084 5.288 11.4364 5.048C11.3404 4.808 11.2924 4.616 11.2924 4.52C11.2924 4.04 11.8444 3.536 12.3484 3.536C12.9244 3.536 13.3084 4.04 13.3084 4.568C13.3084 4.736 13.2604 4.904 13.1884 5.024C13.1164 5.144 13.0444 5.288 13.0204 5.432L12.9244 6.104L13.4044 5.816C13.5484 5.744 13.7404 5.528 13.9804 5.24C14.2204 4.952 14.4604 4.808 14.7484 4.808C15.1084 4.808 15.4444 5.168 15.4444 5.576C15.4444 5.984 15.2284 6.224 14.7724 6.296C14.3164 6.368 13.9804 6.464 13.8364 6.536L13.3564 6.824C13.8124 7.04 14.1244 7.16 14.2924 7.16C15.1324 7.16 15.3724 7.712 15.3724 8.192C15.3724 8.744 14.8684 9.128 14.2924 9.128C13.9804 9.128 13.7404 8.984 13.5484 8.72C13.1644 8.168 12.7564 8 11.9644 7.592L8.74841 9.416L11.9644 11.24C12.8044 10.832 13.2844 10.472 13.5004 10.184C13.7164 9.896 13.9564 9.752 14.2924 9.752C14.8924 9.752 15.3724 10.136 15.3724 10.688C15.3724 11.216 15.0844 11.696 14.2924 11.696C14.1244 11.696 13.8124 11.816 13.3564 12.056L13.8364 12.296C14.0524 12.416 14.2684 12.464 14.5084 12.488C14.9884 12.536 15.4684 12.848 15.4684 13.256C15.4684 13.64 15.1324 14.024 14.7484 14.024C14.4364 14.024 14.2204 13.904 14.0524 13.688C13.7164 13.256 13.6684 13.208 12.9244 12.776L13.0204 13.448C13.0204 13.52 13.0684 13.64 13.1644 13.832C13.2604 14 13.3084 14.168 13.3084 14.312C13.3084 14.744 12.9484 15.32 12.2524 15.32C11.8204 15.32 11.2924 14.744 11.2924 14.264C11.2924 14.12 11.3644 13.904 11.4604 13.616C11.5564 13.352 11.6284 12.992 11.6284 12.56L11.5804 11.96L8.36441 10.088L8.41241 13.784L9.42041 14.456C9.54041 14.504 9.82841 14.552 10.3084 14.648C10.7644 14.744 11.0044 15.08 11.0044 15.68C11.0044 16.208 10.6444 16.616 10.0444 16.616C9.70841 16.616 9.46841 16.496 9.32441 16.28C9.18041 16.04 9.06041 15.92 8.98841 15.848L8.41241 15.368V15.944C8.41241 16.16 8.46041 16.4 8.58041 16.64C8.70041 16.88 8.74841 17.072 8.74841 17.24C8.74841 17.6 8.43641 17.912 8.02841 17.912Z" fill="white"/>
</svg>
