<svg width="19" height="18" viewBox="0 0 19 18" fill="none" xmlns="http://www.w3.org/2000/svg">
<path d="M6.02131 17.48C4.29331 17.48 2.80531 15.992 2.80531 14.216C2.80531 12.488 4.24531 11.144 6.21331 10.952L5.97331 10.184C5.32531 10.544 4.43731 10.832 3.71731 10.832C1.98931 10.832 0.669313 9.344 0.669313 7.64C0.669313 5.816 2.13331 4.4 3.86131 4.4C5.18131 4.4 6.52531 5.48 7.07731 6.776L7.70131 6.296C6.83731 5.504 6.26131 4.448 6.26131 3.56C6.26131 1.76 7.70131 0.295999 9.47731 0.295999C11.2533 0.295999 12.7413 1.784 12.7413 3.56C12.7413 4.448 12.1413 5.552 11.3013 6.296L11.9253 6.776C12.4773 5.432 13.7973 4.4 15.1413 4.4C16.8693 4.4 18.3333 5.84 18.3333 7.64C18.3333 9.32 16.9413 10.832 15.3093 10.832C14.5653 10.832 13.8213 10.616 13.0293 10.184L12.7893 10.952C14.7093 11.144 16.1973 12.488 16.1973 14.216C16.1973 15.944 14.7333 17.48 12.9813 17.48C11.1573 17.48 9.78931 16.088 9.78931 14.096C9.78931 13.712 9.83731 13.352 9.90931 13.064H9.09331C9.16531 13.4 9.21331 13.736 9.21331 14.096C9.21331 16.064 7.84531 17.48 6.02131 17.48ZM9.47731 12.44C11.1093 12.44 12.4533 11.096 12.4533 9.464C12.4533 7.832 11.1093 6.488 9.47731 6.488C7.84531 6.488 6.54931 7.832 6.54931 9.464C6.54931 11.12 7.86931 12.44 9.47731 12.44Z" fill="white"/>
</svg>
