<svg width="17" height="19" viewBox="0 0 17 19" fill="none" xmlns="http://www.w3.org/2000/svg">
<path d="M8.51566 18.272C7.29166 18.272 6.30766 17.336 6.30766 16.088C6.30766 15.032 7.02766 14.168 8.05966 13.952V10.256L4.84366 12.104C4.89166 12.272 4.93966 12.488 4.93966 12.776C4.93966 13.952 3.97966 14.96 2.77966 14.96C1.60366 14.96 0.571656 13.976 0.571656 12.776C0.571656 11.6 1.53166 10.592 2.75566 10.592C3.40366 10.592 3.95566 10.832 4.38766 11.312L7.57966 9.464L4.38766 7.616C3.97966 8.096 3.45166 8.336 2.77966 8.336C1.55566 8.336 0.571656 7.352 0.571656 6.176C0.571656 4.976 1.57966 3.968 2.77966 3.968C4.00366 3.968 4.93966 5 4.93966 6.152C4.93966 6.44 4.89166 6.656 4.84366 6.824L8.05966 8.672V4.976C7.05166 4.784 6.30766 3.944 6.30766 2.84C6.30766 1.616 7.29166 0.655999 8.49166 0.655999C9.73966 0.655999 10.6997 1.664 10.6997 2.84C10.6997 3.896 9.93166 4.784 8.94766 4.976V8.672L12.1637 6.824C12.0917 6.632 12.0677 6.416 12.0677 6.152C12.0677 4.976 13.0037 3.968 14.2277 3.968C15.4997 3.968 16.4357 5 16.4357 6.176C16.4357 7.352 15.4277 8.336 14.2277 8.336C13.5557 8.336 13.0277 8.096 12.6197 7.616L9.40366 9.464L12.6197 11.312C13.0517 10.832 13.6037 10.592 14.2517 10.592C15.4517 10.592 16.4357 11.6 16.4357 12.776C16.4357 13.952 15.4277 14.96 14.2277 14.96C13.0037 14.96 12.0677 13.952 12.0677 12.776C12.0677 12.512 12.0917 12.296 12.1637 12.104L8.94766 10.256V13.952C9.97966 14.192 10.6997 15.056 10.6997 16.088C10.6997 17.336 9.73966 18.272 8.51566 18.272Z" fill="white"/>
</svg>
